<?xml version="1.0" encoding="utf-8"?>
<!-- Generator: Adobe Illustrator 26.0.1, SVG Export Plug-In . SVG Version: 6.00 Build 0)  -->
<svg version="1.1" id="Layer_1" xmlns="http://www.w3.org/2000/svg" xmlns:xlink="http://www.w3.org/1999/xlink" x="0px" y="0px"
	 viewBox="0 0 1366 3072" style="enable-background:new 0 0 1366 3072;" xml:space="preserve">
<style type="text/css">
	.st0{fill:#FFFFFF;stroke:#000000;stroke-width:2;stroke-miterlimit:10;}
	.st1{fill:#FFFFFF;}
	.st2{fill:#181716;}
	.st3{font-family:'PPNeueBit-Regular';}
	.st4{font-size:49.606px;}
	.st5{letter-spacing:-4;}
	.st6{fill:#D4F4EB;}
	.st7{font-family:'PPNeueMontreal-Regular';}
	.st8{font-size:57.8265px;}
	.st9{letter-spacing:-1;}
	.st10{font-size:79.2515px;}
	.st11{font-size:115.7172px;}
	.st12{letter-spacing:-2;}
	.st13{font-size:158.5911px;}
	.st14{letter-spacing:-3;}
	.st15{font-size:40.7582px;}
	.st16{font-size:55.8593px;}
	.st17{font-size:40.0724px;}
	.st18{font-size:54.9194px;}
	.st19{font-size:34.1271px;}
	.st20{font-size:46.7714px;}
	.st21{fill:none;stroke:#000000;}
	.st22{fill:#D4F4EB;stroke:#000000;}
	.st23{fill:#FFDAB6;stroke:#000000;}
	.st24{fill:#FFFFFF;stroke:#000000;}
	.st25{font-size:31.0283px;}
	.st26{font-size:22.5547px;}
	.st27{fill:#DDE8E3;}
	.st28{fill:#493B30;}
	.st29{fill:#E3A19E;stroke:#000000;}
	.st30{fill:#FFF5AB;stroke:#000000;}
	.st31{fill:#FF5A79;}
	.st32{fill:#FFDD7D;}
	.st33{fill:#FFD05A;}
	.st34{fill:#FFE54D;}
	.st35{fill:#6ADBC6;}
	.st36{fill:#FF73C0;}
	.st37{fill:#B1BCC4;}
	.st38{fill:#CAD5DD;}
	.st39{fill:#333333;}
	.st40{fill:#EFD57F;}
	.st41{fill:#FEE790;}
	.st42{fill:#428BC1;}
	.st43{fill:#42ADE2;}
	.st44{fill:#7D8B91;}
	.st45{fill:#DFE9EF;}
	.st46{fill:#EF4E16;}
	.st47{fill:#FFCE31;}
	.st48{font-size:32px;}
	.st49{fill:#00B9F1;}
	.st50{fill:#89967A;}
	.st51{fill:#B6C4A7;}
	.st52{fill:#3E4347;}
	.st53{fill:#FF5263;}
	.st54{fill:#EFFFD9;}
	.st55{fill:#545B61;}
	.st56{opacity:0.7;}
	.st57{fill:#F5F5F5;}
	.st58{font-size:48.8978px;}
	.st59{font-size:67.0147px;}
	.st60{font-size:42.2195px;}
	.st61{font-size:48.9278px;}
</style>
<rect x="-231.7" y="300.9" transform="matrix(-1.836970e-16 1 -1 -1.836970e-16 1601.4916 266.3245)" width="1798.6" height="1266"/>
<rect x="-202.2" y="299" transform="matrix(-1.836970e-16 1 -1 -1.836970e-16 1615.0096 249.0096)" class="st0" width="1770.5" height="1266"/>
<g>
	<circle class="st1" cx="139.4" cy="138.1" r="36.9"/>
	<path class="st2" d="M139.4,101.2c20.4,0,36.9,16.5,36.9,36.9S159.8,175,139.4,175s-36.9-16.5-36.9-36.9S119,101.2,139.4,101.2
		 M139.4,98.7c-21.7,0-39.4,17.7-39.4,39.4s17.7,39.4,39.4,39.4s39.4-17.7,39.4-39.4S161.2,98.7,139.4,98.7L139.4,98.7z"/>
</g>
<g>
	<path d="M120.5,148.5v-6.9h3.5v6.9H120.5z"/>
	<path d="M127.2,120.8v-6.9h3.5v6.9H127.2z M127.2,162.4v-3.5h6.9v3.5H127.2z M130.6,127.7v-6.9h3.5v6.9H130.6z M134.1,134.6v-6.9
		h3.5v6.9H134.1z M134.1,158.9v-3.5h3.5v3.5H134.1z M137.6,141.6v-6.9h3.5v6.9H137.6z M137.6,155.4v-6.9h3.5v6.9H137.6z M141,148.5
		v-6.9h3.5v6.9H141z M144.5,141.6v-6.9h3.5v6.9H144.5z M148,134.6v-6.9h3.5v6.9H148z M151.5,127.7v-6.9h3.5v6.9H151.5z M154.9,120.8
		v-6.9h3.5v6.9H154.9z"/>
	<path d="M154.7,148.5v-6.9h3.5v6.9H154.7z"/>
</g>
<text transform="matrix(1 0 0 1 32.4615 59.1775)" class="st1 st3 st4 st5">▧▨</text>
<g>
	<g>
		<path class="st6" d="M789.4,510.9v-29.1H468.8v-29.3h320.6v-29.1h29.1v87.5H789.4z M672.8,335.9v-29.1h29.1v29.1H672.8z
			 M672.8,627.4v-29.1h29.1v29.1H672.8z M701.9,365.2v-29.3H731v29.3H701.9z M701.9,598.3v-29.1H731v29.1H701.9z M731,394.3v-29.1
			h29.1v29.1H731z M731,569.2V540h29.1v29.3H731z M760.1,423.4v-29.1h29.3v29.1H760.1z M760.1,540v-29.1h29.3V540H760.1z"/>
	</g>
</g>
<g>
	<text transform="matrix(1 0 0 1 122.2129 344.9917)"><tspan x="0" y="0" class="st7 st8 st9">Stre</tspan><tspan x="101" y="0" class="st3 st10 st9">∆</tspan><tspan x="144.7" y="0" class="st7 st8 st9">mline</tspan><tspan x="0" y="62.7" class="st7 st8 st9">your community curation</tspan><tspan x="0" y="128.9" class="st7 st8 st9">with g</tspan><tspan x="141.4" y="128.9" class="st3 st10 st9">∆</tspan><tspan x="185.1" y="128.9" class="st7 st8 st9">ther.</tspan><tspan x="290.4" y="128.9" class="st3 st10 st9">fyi</tspan></text>
</g>
<g>
	<text transform="matrix(1 0 0 1 123.7153 1743.9169)"><tspan x="0" y="0" class="st7 st11 st12">Let’s Cur</tspan><tspan x="431.7" y="0" class="st3 st13 st14">∆</tspan><tspan x="519.2" y="0" class="st7 st11 st12">te!</tspan></text>
</g>
<g>
	<text transform="matrix(1 0 0 1 136.1885 934.0664)"><tspan x="0" y="0" class="st7 st15">Filter out the best content</tspan><tspan x="0" y="46.6" class="st7 st15">through member-re</tspan><tspan x="328.7" y="46.6" class="st3 st16 st9">∆</tspan><tspan x="359.5" y="46.6" class="st7 st15">ctions</tspan></text>
</g>
<g>
	<text transform="matrix(1 0 0 1 544.6061 1473.0601)"><tspan x="0" y="0" class="st7 st17">These D</tspan><tspan x="139.8" y="0" class="st3 st18 st9">∆</tspan><tspan x="170.1" y="0" class="st7 st17">Os</tspan><tspan x="0" y="45.8" class="st7 st17">are using g</tspan><tspan x="180.2" y="45.8" class="st3 st18 st9">∆</tspan><tspan x="210.5" y="45.8" class="st7 st17">ther.</tspan><tspan x="283.5" y="45.8" class="st3 st18 st9">fyi</tspan></text>
</g>
<text transform="matrix(1 0 0 1 209.5548 149.0542)"><tspan x="0" y="0" class="st7 st19">g</tspan><tspan x="18.4" y="0" class="st3 st20">∆</tspan><tspan x="44.2" y="0" class="st7 st19">ther</tspan><tspan x="100.4" y="0" class="st3 st20">→fyi</tspan></text>
<path class="st21" d="M605.4,1026.5H127.3c-2.8,0-5.1-2.3-5.1-5.1V870.3c0-2.8,2.3-5.1,5.1-5.1h478.2c2.8,0,5.1,2.3,5.1,5.1v151.1
	C610.5,1024.2,608.2,1026.5,605.4,1026.5z"/>
<path class="st22" d="M1256.8,502.9h-246.5c-2.8,0-5.1-2.3-5.1-5.1v-60.5c0-2.8,2.3-5.1,5.1-5.1h246.5c2.8,0,5.1,2.3,5.1,5.1v60.5
	C1261.9,500.7,1259.6,502.9,1256.8,502.9z"/>
<path class="st23" d="M492.5,1228.3H262.1c-2.8,0-5.1-2.3-5.1-5.1v-207.1c0-2.8,2.3-5.1,5.1-5.1h230.5c2.8,0,5.1,2.3,5.1,5.1v207.1
	C497.6,1226.1,495.4,1228.3,492.5,1228.3z"/>
<path class="st24" d="M178.7,1039.5h-39.5c-2.8,0-5.1-2.3-5.1-5.1V1020c0-2.8,2.3-5.1,5.1-5.1h39.5c2.8,0,5.1,2.3,5.1,5.1v14.4
	C183.8,1037.2,181.5,1039.5,178.7,1039.5z"/>
<text transform="matrix(1 0 0 1 141.3984 1034.7734)"><tspan x="0" y="0" class="st3 st25">☺ </tspan><tspan x="22" y="0" class="st7 st26">4</tspan></text>
<path class="st24" d="M318.8,1240.8h-39.5c-2.8,0-5.1-2.3-5.1-5.1v-14.4c0-2.8,2.3-5.1,5.1-5.1h39.5c2.8,0,5.1,2.3,5.1,5.1v14.4
	C323.9,1238.6,321.7,1240.8,318.8,1240.8z"/>
<text transform="matrix(1 0 0 1 305.3784 1235.9268)" class="st7 st26">2</text>
<g>
	<text transform="matrix(1 0 0 1 271.5889 1061.834)"><tspan x="0" y="0" class="st7 st15">Build</tspan><tspan x="0" y="44.2" class="st7 st15">the best</tspan><tspan x="0" y="88.4" class="st7 st15">FAQ section</tspan><tspan x="0" y="132.6" class="st7 st15">with UGC</tspan></text>
</g>
<g>
	<path class="st27" d="M280.4,1228.1c0,3.1,1.3,7.6,5.3,7.6c4,0,5.3-4.5,5.3-7.6C291,1218.5,280.4,1218.5,280.4,1228.1z"/>
	<path class="st27" d="M291,1228.1c0,3.1,1.3,7.6,5.3,7.6c4,0,5.3-4.5,5.3-7.6C301.5,1218.5,291,1218.5,291,1228.1z"/>
	<path class="st1" d="M280.7,1228.4c0,2.7,0.8,6.8,4.2,6.8c3.4,0,4.2-4.2,4.2-6.8C289.1,1219.2,280.7,1219.2,280.7,1228.4z"/>
	<path class="st1" d="M291.2,1228.4c0,2.7,0.8,6.8,4.2,6.8c3.4,0,4.2-4.2,4.2-6.8C299.7,1219.2,291.2,1219.2,291.2,1228.4z"/>
	<path class="st28" d="M280.7,1228.4c0,2.2,1.5,3.9,3.4,3.9c1.9,0,3.4-1.7,3.4-3.9C287.5,1223,280.7,1223,280.7,1228.4z"/>
	<path class="st28" d="M291.2,1228.4c0,2.2,1.5,3.9,3.4,3.9c1.9,0,3.4-1.7,3.4-3.9C298.1,1223,291.2,1223,291.2,1228.4z"/>
</g>
<path class="st29" d="M808.9,1251.2H462.7c-2.8,0-5.1-2.3-5.1-5.1v-71.8c0-2.8,2.3-5.1,5.1-5.1h346.1c2.8,0,5.1,2.3,5.1,5.1v71.8
	C813.9,1249,811.7,1251.2,808.9,1251.2z"/>
<path class="st21" d="M1218.3,1335.4H947.5c-2.8,0-5.1-2.3-5.1-5.1v-90.5c0-2.8,2.3-5.1,5.1-5.1h270.8c2.8,0,5.1,2.3,5.1,5.1v90.5
	C1223.4,1333.1,1221.1,1335.4,1218.3,1335.4z"/>
<path class="st24" d="M519.5,1263.7H480c-2.8,0-5.1-2.3-5.1-5.1v-14.4c0-2.8,2.3-5.1,5.1-5.1h39.5c2.8,0,5.1,2.3,5.1,5.1v14.4
	C524.6,1261.5,522.3,1263.7,519.5,1263.7z"/>
<text transform="matrix(1 0 0 1 503.6069 1258.8291)" class="st7 st26">6</text>
<g>
	<text transform="matrix(1 0 0 1 472.2363 1220.0615)" class="st7 st15">Remove spam links</text>
</g>
<path class="st30" d="M909.6,1139.2h-387c-2.8,0-5.1-2.3-5.1-5.1v-118c0-2.8,2.3-5.1,5.1-5.1h387c2.8,0,5.1,2.3,5.1,5.1v118
	C914.7,1136.9,912.4,1139.2,909.6,1139.2z"/>
<path class="st24" d="M579.3,1151.7h-39.5c-2.8,0-5.1-2.3-5.1-5.1v-14.4c0-2.8,2.3-5.1,5.1-5.1h39.5c2.8,0,5.1,2.3,5.1,5.1v14.4
	C584.4,1149.4,582.1,1151.7,579.3,1151.7z"/>
<text transform="matrix(1 0 0 1 565.7676 1146.7812)" class="st7 st26">5</text>
<path class="st24" d="M634.7,1151.7h-39.5c-2.8,0-5.1-2.3-5.1-5.1v-14.4c0-2.8,2.3-5.1,5.1-5.1h39.5c2.8,0,5.1,2.3,5.1,5.1v14.4
	C639.8,1149.4,637.5,1151.7,634.7,1151.7z"/>
<text transform="matrix(1 0 0 1 621.1982 1146.7812)" class="st7 st26">2</text>
<path class="st24" d="M690,1151.7h-39.5c-2.8,0-5.1-2.3-5.1-5.1v-14.4c0-2.8,2.3-5.1,5.1-5.1H690c2.8,0,5.1,2.3,5.1,5.1v14.4
	C695,1149.4,692.8,1151.7,690,1151.7z"/>
<text transform="matrix(1 0 0 1 674.0049 1146.7812)" class="st7 st26">3</text>
<g>
	<text transform="matrix(1 0 0 1 532.0571 1061.834)"><tspan x="0" y="0" class="st7 st15">Automate your</tspan><tspan x="0" y="44.2" class="st7 st15">community highlights</tspan></text>
</g>
<g>
	<path class="st21" d="M797.3,502.9v-29.1H476.7v-29.3h320.6v-29.1h29.1v87.5H797.3z M680.8,328v-29.1h29.1V328H680.8z M680.8,619.5
		v-29.1h29.1v29.1H680.8z M709.8,357.3V328h29.1v29.3H709.8z M709.8,590.4v-29.1h29.1v29.1H709.8z M738.9,386.4v-29.1H768v29.1
		H738.9z M738.9,561.3V532H768v29.3H738.9z M768,415.5v-29.1h29.3v29.1H768z M768,532v-29.1h29.3V532H768z"/>
</g>
<g>
	<g>
		<path class="st31" d="M560.8,1134.9c-2.2-5.9-9.5-3.3-10.2-0.3c-0.9-3.2-8-5.5-10.2,0.3c-2.4,6.5,9.3,12.3,10.2,13.2
			C551.5,1147.4,563.2,1141.3,560.8,1134.9z"/>
		<polygon class="st1" points="558.3,1133.2 557.4,1131.4 556.4,1133.2 554.6,1134.2 556.4,1135.1 557.4,1136.9 558.3,1135.1 
			560.1,1134.2 		"/>
		<polygon class="st1" points="545.1,1138 543.9,1135.5 542.6,1138 540.1,1139.2 542.6,1140.4 543.9,1142.9 545.1,1140.4 
			547.6,1139.2 		"/>
		<polygon class="st1" points="556.5,1143.4 555.5,1141.4 554.5,1143.4 552.5,1144.5 554.5,1145.5 555.5,1147.5 556.5,1145.5 
			558.5,1144.5 		"/>
		
			<rect x="546.3" y="1135.1" transform="matrix(0.7071 -0.7071 0.7071 0.7071 -642.9058 719.5258)" class="st1" width="1.5" height="1.5"/>
		
			<rect x="547.9" y="1142.5" transform="matrix(0.7071 -0.7071 0.7071 0.7071 -647.6909 722.7181)" class="st1" width="1.2" height="1.2"/>
		
			<rect x="553.5" y="1137.4" transform="matrix(0.7071 -0.7071 0.7071 0.7071 -642.4714 725.2833)" class="st1" width="1.5" height="1.5"/>
	</g>
	<g>
		<path class="st32" d="M613.1,1134.6c0.5-1.5,0.4-4.3-4.8-0.9c-5.2,3.4-10.6,11.4-10.2,12.8c0.3,1.1,4.9-1.4,7.5-4.9
			c0.2-0.3,2.5,2.5,2.2,2.8c-2.2,2.2-9.4,5.1-10.9,3.6c-1.7-1.7,4.8-11.4,11.5-15.3C610.2,1131.7,615.6,1129.1,613.1,1134.6z"/>
		<polygon class="st33" points="613.4,1144.8 609.4,1144.4 606.8,1147.4 605.9,1143.5 602.3,1141.9 605.7,1139.9 606.1,1135.9 
			609,1138.6 612.9,1137.7 611.3,1141.4 		"/>
	</g>
	<g>
		<ellipse class="st34" cx="657.6" cy="1139.8" rx="5.9" ry="8.6"/>
		<path class="st35" d="M666,1131.2c0,2.3-1.2,4.3-3,4.3c1.7,0,3,2,3,4.3c0-2.3,1.2-4.3,3-4.3C667.2,1135.5,666,1133.5,666,1131.2z"
			/>
		<path class="st36" d="M664.6,1139.8c0,2.3-1.2,4.3-3,4.3c1.7,0,3,2,3,4.3c0-2.3,1.2-4.3,3-4.3
			C665.9,1144.1,664.6,1142.1,664.6,1139.8z"/>
	</g>
</g>
<g>
	<g>
		<path class="st37" d="M482.3,1248.8l0.9,7.3c0,2.2,2.9,3.9,6.5,3.9c3.6,0,6.5-1.8,6.5-3.9l0.9-7.3L482.3,1248.8L482.3,1248.8z"/>
		<path class="st38" d="M483.5,1248.8l0.8,7.3c0,2.2,2.4,3.9,5.4,3.9c3,0,5.4-1.8,5.4-3.9l0.8-7.3L483.5,1248.8L483.5,1248.8z"/>
		<path class="st38" d="M489.7,1245.6c4.1,0,7.4,1.5,7.4,3.4c0,1.9-3.3,3.3-7.4,3.3c-4.1,0-7.4-1.5-7.4-3.3
			C482.3,1247.1,485.6,1245.6,489.7,1245.6z"/>
		<path class="st39" d="M489.7,1246.1c3.3,0,6,1.2,6,2.7s-2.7,2.7-6,2.7c-3.3,0-6-1.2-6-2.7S486.4,1246.1,489.7,1246.1z"/>
		<path class="st40" d="M485.8,1249.3c0.1,0.9-1.4-1-1.9-0.5c-0.2,0.3,1,1.8,1,1.8l3.1-1.4c0,0,0.3-2.5-0.1-2
			C487,1248.4,485.6,1247.7,485.8,1249.3z"/>
		<path class="st41" d="M487.4,1249.3c-1-0.2-0.7-1.8-1.4-1.6c-1,0.3-0.3,1.5-2,2.3c0,0,5.2,3.5,5.6,0c0,0-0.9-1.9-1.4-1.8
			C487.8,1248.4,488.1,1249.4,487.4,1249.3z"/>
		<path class="st40" d="M490.4,1249.1c-0.1,0.9,2.4,2.7,2.4,2.7l3.4-2.7c0,0-1.1-0.3-1.4-0.7c-0.2-0.3-0.6-1.2-1.2-1.1
			c-0.7,0.1-0.5,1.4-0.9,1.6C492.2,1249.3,490.5,1248.5,490.4,1249.1z"/>
		<path class="st41" d="M494.9,1247.6c-0.3-0.3-4,2.4-4,2.4c-0.1,0.6,1.5,0.6,1.7,0.6c-0.2,1.2,3.8,0,3.9-0.6c-0.3-0.7-0.8-1-1.6-1
			C494.7,1249.1,495.4,1248.1,494.9,1247.6z"/>
		<path class="st42" d="M487.6,1251.9c-0.2,0.3,4.9-0.2,5-0.2c0.4-0.5-1-1.2-1.2-1.3c0.8-0.9,0.2-1.2-0.9-0.9c0.1-1.9-0.4-2.4-1.3,0
			c-0.3-0.2-1.5,0-1.8,0.6C487.1,1250.7,488.8,1250.3,487.6,1251.9z"/>
		<path class="st43" d="M488.7,1248c-0.5,0.1-0.3,3.6,0.4,3.8c0,0.1-0.7,0.8-0.4,1c0.5,0.4,2.6-1.4,2.4-1.9c1.9,0.2,2.6-0.2,0.1-1.2
			c0.2-0.3,1.1-1.2,0.5-1.5c-0.7-0.3-1.3,0.9-1.7,0.8C489.5,1249,489.4,1247.8,488.7,1248z"/>
		<path class="st37" d="M495.7,1250.9l-0.6,5.2c0,2.2-2.4,3.9-5.4,3.9c3.6,0,6.5-1.8,6.5-3.9l0.9-6.7
			C496.8,1250,496.4,1250.5,495.7,1250.9z"/>
		<path class="st37" d="M484.3,1256.1l-0.6-5.2c-0.7-0.4-1.2-0.9-1.3-1.5l0.9,6.7c0,2.2,2.9,3.9,6.5,3.9
			C486.7,1260.1,484.3,1258.3,484.3,1256.1z"/>
		<path class="st38" d="M489.7,1251.5c-3.3,0-6-1.2-6-2.7c0-1.5,2.7-2.7,6-2.7c3.3,0,6,1.2,6,2.7S493,1251.5,489.7,1251.5z
			 M497.1,1248.8L497.1,1248.8c-0.2-1.8-3.4-3.2-7.4-3.2c-3.9,0-7.2,1.4-7.4,3.2h0l0,0.1c0,0,0,0.1,0,0.1c0,0.2,0,0.3,0.1,0.5
			c0.2,0.6,0.6,1.1,1.3,1.5l0.6,5.2c0,2.2,2.4,3.9,5.4,3.9c3,0,5.4-1.8,5.4-3.9l0.6-5.2c0.7-0.4,1.2-0.9,1.3-1.5
			c0-0.1,0.1-0.3,0.1-0.5C497.1,1248.9,497.1,1248.9,497.1,1248.8L497.1,1248.8z"/>
		
			<rect x="483.6" y="1257.8" transform="matrix(0.9824 -0.1868 0.1868 0.9824 -226.4203 112.4978)" class="st44" width="0.6" height="0.5"/>
		
			<rect x="487.4" y="1257.8" transform="matrix(0.9825 -0.1863 0.1863 0.9825 -225.7824 112.8502)" class="st44" width="0.6" height="0.5"/>
		<path class="st44" d="M484.8,1256.8c0,0,1.2,1.1,3.2,1.4c0,0-0.2,1.6-0.8,1.8c-0.9,0.4-3.4-0.8-3.6-1.7
			C483.5,1257.8,484.8,1256.8,484.8,1256.8z"/>
		<path class="st45" d="M484.7,1256.4c0,0,1.2,1.1,3.2,1.4c0,0-0.2,1.6-0.8,1.8c-0.9,0.4-3.4-0.8-3.6-1.7
			C483.5,1257.3,484.7,1256.4,484.7,1256.4z"/>
		<path class="st1" d="M496.4,1250.3c-0.4,0.5-0.9,0.9-1.4,1.2c-0.5,0.3-1.1,0.6-1.7,0.7c-1.2,0.4-2.4,0.5-3.7,0.5
			c-1.2,0-2.5-0.1-3.7-0.5c-0.6-0.2-1.2-0.4-1.7-0.7c-0.5-0.3-1-0.7-1.4-1.2c0.4,0.4,1,0.7,1.5,1c0.5,0.2,1.1,0.4,1.7,0.6
			c1.2,0.3,2.3,0.4,3.5,0.4c1.2,0,2.4-0.1,3.5-0.4c0.6-0.1,1.1-0.3,1.7-0.6C495.4,1251,496,1250.8,496.4,1250.3z"/>
		<path class="st37" d="M497.6,1246l0.2-1c0.2-0.8-3.1-2.1-6.3-2.7c-3.2-0.6-6.8-0.6-7,0.2l-0.3,1L497.6,1246z"/>
		<path class="st38" d="M496.7,1245.8l0.2-1c0.2-0.8-2.6-2-5.4-2.6c-2.8-0.5-5.9-0.4-6.1,0.4l-0.3,1L496.7,1245.8z"/>
		<path class="st44" d="M484.2,1243.4c0.2-0.7,3.3-0.7,7,0c3.7,0.7,6.6,1.8,6.4,2.5c-0.2,0.7-3.3,0.7-7,0
			C486.9,1245.2,484,1244.1,484.2,1243.4z"/>
		<path class="st39" d="M485.4,1243.7c0.1-0.6,2.7-0.6,5.7,0c3,0.6,5.4,1.5,5.2,2.1c-0.1,0.6-2.7,0.6-5.7,0
			C487.6,1245.2,485.3,1244.3,485.4,1243.7z"/>
	</g>
</g>
<path class="st24" d="M577.1,1263.7h-39.5c-2.8,0-5.1-2.3-5.1-5.1v-14.4c0-2.8,2.3-5.1,5.1-5.1h39.5c2.8,0,5.1,2.3,5.1,5.1v14.4
	C582.2,1261.5,579.9,1263.7,577.1,1263.7z"/>
<text transform="matrix(1 0 0 1 561.2617 1258.8291)" class="st7 st26">3</text>
<g>
	<g>
		<g>
			<polygon class="st46" points="551.1,1251.7 556.3,1248.8 550.4,1249 552.2,1245.4 549,1247.7 549.4,1242.7 547.1,1246.8 
				543.6,1242.1 545.1,1248 539.9,1246.3 544,1250.1 539,1251 543.8,1252.2 541.1,1257 545.5,1254.3 545.7,1259.4 547.6,1254.8 
				550,1258.4 549.9,1254 554.1,1255.6 			"/>
			<polygon class="st47" points="549.5,1251.2 552.6,1249.8 549.2,1249.7 550.1,1247.7 548.3,1248.7 548.4,1246 547.2,1248.3 
				545.4,1245.9 546.2,1248.9 543.1,1248.1 545.6,1250.3 542.5,1251 545.3,1251.6 543.4,1254.7 546.4,1252.6 546.5,1255.3 
				547.6,1252.8 548.8,1254.7 548.8,1252.4 551,1253.4 			"/>
			<polygon class="st1" points="548.4,1250.9 549.7,1250.3 548.3,1250.2 548.6,1249.4 547.9,1249.8 547.9,1248.7 547.4,1249.6 
				546.6,1248.6 547,1249.9 545.7,1249.6 546.7,1250.5 545.4,1250.8 546.6,1251 545.8,1252.3 547.1,1251.5 547.1,1252.6 
				547.6,1251.6 548.1,1252.3 548.1,1251.4 549,1251.8 			"/>
		</g>
	</g>
</g>
<path class="st24" d="M1081.5,520.4h-60.3c-2.8,0-5.1-2.3-5.1-5.1v-24.7c0-2.8,2.3-5.1,5.1-5.1h60.3c2.8,0,5.1,2.3,5.1,5.1v24.7
	C1086.6,518.1,1084.4,520.4,1081.5,520.4z"/>
<text transform="matrix(1 0 0 1 1056.927 513.3976)" class="st7 st48">3</text>
<g>
	<g>
		<g>
			<path class="st49" d="M1047.4,494.9c-0.3-0.4-0.6-0.6-1-0.8c-1.3-0.6-4.5-0.5-4.7-2.2c-0.4-2.2-2.2,0-2.6,0
				c-0.4,0-0.6-1.5-1.4-1.5c-0.8,0-1,1.5-1.4,1.5c-0.4,0-2.2-2.2-2.6,0c-0.3,1.7-3.4,1.5-4.7,2.2c-0.4,0.2-0.8,0.5-1,0.8
				c-0.2,0.3,0.2,0.6,0.5,0.3c0.6-0.8,1.9-0.9,2.7-1.1c0.7-0.1,1.6-0.2,2.3-0.5c1-0.4,1-1.9,1.3-1.9c0.2,0,1,1.2,1.7,1.2
				c0.6,0,1-1.4,1.3-1.4c0.3,0,0.7,1.4,1.3,1.4c0.7,0,1.5-1.2,1.7-1.2c0.3,0,0.3,1.5,1.3,1.9c0.7,0.3,1.5,0.4,2.3,0.5
				c0.9,0.2,2.1,0.3,2.7,1.1C1047.2,495.5,1047.6,495.2,1047.4,494.9z"/>
			<path class="st50" d="M1045.6,511.5c0,1.1-0.9,1.9-1.9,1.9h-12.3c-1.1,0-1.9-0.9-1.9-1.9v-8.1h16.1V511.5z"/>
			<path class="st51" d="M1037.6,494.3c-5.9,0-8.1,3.3-8.1,9.2v8.1h16.1v-8.1C1045.6,497.5,1043.5,494.3,1037.6,494.3z"/>
			<path class="st50" d="M1029.5,510.8c-0.4,0-0.8-0.4-0.8-1v-2.6c0-0.6,0.3-1,0.8-1V510.8z"/>
			<path class="st50" d="M1045.6,506.2c0.4,0,0.8,0.4,0.8,1v2.6c0,0.6-0.3,1-0.8,1V506.2z"/>
			<polygon class="st52" points="1028,497.3 1027.2,497.3 1027.2,508.8 1028,508.8 1028.7,508.8 1028.7,508.1 1028,508.1 			"/>
			<polygon class="st52" points="1047.2,497.3 1047.2,508.1 1046.4,508.1 1046.4,508.8 1047.2,508.8 1047.9,508.8 1047.9,497.3 			
				"/>
			<path class="st49" d="M1047.5,495.8c0.8,0,1.5,0.7,1.5,1.5c0,0.8-0.7,1.5-1.5,1.5s-1.5-0.7-1.5-1.5
				C1046,496.5,1046.7,495.8,1047.5,495.8z"/>
			<path class="st53" d="M1027.6,495.8c0.8,0,1.5,0.7,1.5,1.5c0,0.8-0.7,1.5-1.5,1.5c-0.8,0-1.5-0.7-1.5-1.5
				C1026,496.5,1026.7,495.8,1027.6,495.8z"/>
			<path class="st54" d="M1033.5,504.8c-1.7,0-3.1-1.4-3.1-3.1c0-1.7,1.4-3.1,3.1-3.1c1.7,0,3.1,1.4,3.1,3.1
				C1036.6,503.4,1035.2,504.8,1033.5,504.8z"/>
			<path class="st55" d="M1033.5,499.5c1.3,0,2.3,1,2.3,2.3c0,1.3-1,2.3-2.3,2.3s-2.3-1-2.3-2.3
				C1031.2,500.5,1032.3,499.5,1033.5,499.5z"/>
			<path class="st53" d="M1033.5,500.9c0.5,0,0.9,0.4,0.9,0.9s-0.4,0.9-0.9,0.9s-0.9-0.4-0.9-0.9S1033.1,500.9,1033.5,500.9z"/>
			<circle class="st54" cx="1041.6" cy="501.8" r="3.1"/>
			<path class="st55" d="M1041.6,504.1c-1.3,0-2.3-1-2.3-2.3c0-1.3,1-2.3,2.3-2.3c1.3,0,2.3,1,2.3,2.3
				C1043.9,503,1042.9,504.1,1041.6,504.1z"/>
			<path class="st53" d="M1041.6,500.9c0.5,0,0.9,0.4,0.9,0.9c0,0.5-0.4,0.9-0.9,0.9s-0.9-0.4-0.9-0.9
				C1040.7,501.3,1041.1,500.9,1041.6,500.9z"/>
			<path class="st54" d="M1032.9,510.4c-2.8,0-2.8-5,0-5h9.4c2.8,0,2.8,5,0,5H1032.9z"/>
			<path class="st50" d="M1033.1,509.9c-2.3,0-2.3-3.8,0-3.8h8.8c2.3,0,2.3,3.8,0,3.8H1033.1z"/>
			<g class="st56">
				<path class="st52" d="M1033.4,509.1c0,0.5-0.8,0.5-0.8,0v-2.4c0-0.5,0.8-0.5,0.8,0V509.1z"/>
				<path class="st52" d="M1035.2,509.1c0,0.5-0.8,0.5-0.8,0v-2.4c0-0.5,0.8-0.5,0.8,0V509.1z"/>
				<path class="st52" d="M1037,509.1c0,0.5-0.8,0.5-0.8,0v-2.4c0-0.5,0.8-0.5,0.8,0V509.1z"/>
				<path class="st52" d="M1038.9,509.1c0,0.5-0.8,0.5-0.8,0v-2.4c0-0.5,0.8-0.5,0.8,0V509.1z"/>
				<path class="st52" d="M1040.7,509.1c0,0.5-0.8,0.5-0.8,0v-2.4c0-0.5,0.8-0.5,0.8,0V509.1z"/>
				<path class="st52" d="M1042.5,509.1c0,0.5-0.8,0.5-0.8,0v-2.4c0-0.5,0.8-0.5,0.8,0V509.1z"/>
			</g>
			<path class="st57" d="M1037.6,503.1c0.4,0,0.8,0.3,0.8,0.8s-0.3,0.8-0.8,0.8s-0.8-0.3-0.8-0.8S1037.1,503.1,1037.6,503.1z"/>
			
				<rect x="1037.4" y="503.1" transform="matrix(0.7071 -0.7072 0.7072 0.7071 -52.3575 881.327)" class="st55" width="0.3" height="1.5"/>
		</g>
	</g>
</g>
<g>
	<text transform="matrix(1 0 0 1 848.3223 419.8354)"><tspan x="0" y="0" class="st7 st58">The </tspan><tspan x="89.5" y="0" class="st3 st59 st9">plug-and-play</tspan><tspan x="0" y="53" class="st7 st58">discord curation bot</tspan></text>
</g>
<g>
	<defs>
		<circle id="SVGID_1_" cx="946.2" cy="1284.6" r="53.8"/>
	</defs>
	<clipPath id="SVGID_00000070797174145179166760000012704681457551664547_">
		<use xlink:href="#SVGID_1_"  style="overflow:visible;"/>
	</clipPath>
	<g style="clip-path:url(#SVGID_00000070797174145179166760000012704681457551664547_);">
		
			<image style="overflow:visible;" width="400" height="400" xlink:href="6046D4CC368F5477.jpg"  transform="matrix(0.2692 0 0 0.2692 892.322 1230.7542)">
		</image>
	</g>
	<use xlink:href="#SVGID_1_"  style="overflow:visible;fill:none;stroke:#000000;"/>
</g>
<g>
	<text transform="matrix(1 0 0 1 1008.944 1279.2212)"><tspan x="0" y="0" class="st7 st60">Rabbithole</tspan><tspan x="0" y="40.8" class="st3 st61">Hatter</tspan></text>
</g>
<path class="st21" d="M1218.3,1470.4H947.5c-2.8,0-5.1-2.3-5.1-5.1v-90.5c0-2.8,2.3-5.1,5.1-5.1h270.8c2.8,0,5.1,2.3,5.1,5.1v90.5
	C1223.4,1468.1,1221.1,1470.4,1218.3,1470.4z"/>
<g>
	<text transform="matrix(1 0 0 1 1008.944 1414.2368)"><tspan x="0" y="0" class="st7 st60">JUMP</tspan><tspan x="0" y="40.8" class="st3 st61">Jumper</tspan></text>
</g>
<path class="st21" d="M1218.3,1605.4H947.5c-2.8,0-5.1-2.3-5.1-5.1v-90.5c0-2.8,2.3-5.1,5.1-5.1h270.8c2.8,0,5.1,2.3,5.1,5.1v90.5
	C1223.4,1603.1,1221.1,1605.4,1218.3,1605.4z"/>
<g>
	<text transform="matrix(1 0 0 1 1008.944 1549.2534)"><tspan x="0" y="0" class="st7 st60">DevDAO</tspan><tspan x="0" y="40.8" class="st3 st61">Devvie</tspan></text>
</g>
<path class="st21" d="M1218.3,1740.4H947.5c-2.8,0-5.1-2.3-5.1-5.1v-90.5c0-2.8,2.3-5.1,5.1-5.1h270.8c2.8,0,5.1,2.3,5.1,5.1v90.5
	C1223.4,1738.2,1221.1,1740.4,1218.3,1740.4z"/>
<g>
	<text transform="matrix(1 0 0 1 1008.944 1684.269)"><tspan x="0" y="0" class="st7 st60">Mirage</tspan><tspan x="0" y="40.8" class="st3 st61">MiraBOT</tspan></text>
</g>
<g>
	<defs>
		<circle id="SVGID_00000165220830153896595750000014151687200392960436_" cx="946.2" cy="1419.6" r="53.8"/>
	</defs>
	<clipPath id="SVGID_00000158725184396269123430000013040161963224287664_">
		<use xlink:href="#SVGID_00000165220830153896595750000014151687200392960436_"  style="overflow:visible;"/>
	</clipPath>
	<g style="clip-path:url(#SVGID_00000158725184396269123430000013040161963224287664_);">
		
			<image style="overflow:visible;" width="400" height="400" xlink:href="6046D4CC368F5475.jpg"  transform="matrix(0.2801 0 0 0.2801 891.6299 1362.8958)">
		</image>
	</g>
	
		<use xlink:href="#SVGID_00000165220830153896595750000014151687200392960436_"  style="overflow:visible;fill:none;stroke:#000000;"/>
</g>
<g>
	<defs>
		<circle id="SVGID_00000002386116420842637380000013202152483480155314_" cx="946.7" cy="1555.4" r="53.8"/>
	</defs>
	<clipPath id="SVGID_00000119825124096156920370000011415812149162445211_">
		<use xlink:href="#SVGID_00000002386116420842637380000013202152483480155314_"  style="overflow:visible;"/>
	</clipPath>
	<g style="clip-path:url(#SVGID_00000119825124096156920370000011415812149162445211_);">
		
			<image style="overflow:visible;" width="400" height="400" xlink:href="6046D4CC368F547B.jpg"  transform="matrix(0.3368 0 0 0.3368 884.2054 1490.3252)">
		</image>
	</g>
	
		<use xlink:href="#SVGID_00000002386116420842637380000013202152483480155314_"  style="overflow:visible;fill:none;stroke:#000000;"/>
</g>
<g>
	<defs>
		<circle id="SVGID_00000162352822420776409830000006497980385514451103_" cx="946.2" cy="1690.1" r="53.8"/>
	</defs>
	<use xlink:href="#SVGID_00000162352822420776409830000006497980385514451103_"  style="overflow:visible;"/>
	<clipPath id="SVGID_00000096054562320500670090000018030086672009390526_">
		<use xlink:href="#SVGID_00000162352822420776409830000006497980385514451103_"  style="overflow:visible;"/>
	</clipPath>
	<g style="clip-path:url(#SVGID_00000096054562320500670090000018030086672009390526_);">
		
			<image style="overflow:visible;" width="1500" height="500" xlink:href="6046D4CC368F547D.jpg"  transform="matrix(8.029409e-02 0 0 8.029409e-02 885.9323 1670.0126)">
		</image>
	</g>
	
		<use xlink:href="#SVGID_00000162352822420776409830000006497980385514451103_"  style="overflow:visible;fill:none;stroke:#000000;"/>
</g>
</svg>
